#!OML:ASF H:\GeneralSubjects\Female5\Project 1\Capture day 1\Session 1\Female5.ASF
:FULLY-SPECIFIED
:DEGREES
252
root 39.927 15.964 2.01305 -349.526 -10.6539 -359.973
lowerback 19.1649 6.3983 9.61955
upperback -15.6621 10.4789 -9.35931
thorax -26.9638 0.437552 -22.2237
lowerneck -10.1493 -11.4236 -0.963655
upperneck 37.8623 -23.0712 13.3724
head 17.8918 -8.11408 1.88199
rclavicle -1.43125e-014 -3.49861e-014
rhumerus -66.2791 -5.25383 -93.0761
rradius 59.5814
rwrist -8.76438
rhand -29.126 -18.2047
rfingers 7.12502
rthumb -2.47341 -48.1701
lclavicle -1.43125e-014 -3.49861e-014
lhumerus -63.8642 -29.5026 74.3765
lradius 75.0672
lwrist -9.03622
lhand -36.0074 37.3699
lfingers 7.12502
lthumb -9.11691 67.1528
rfemur -2.3914 -8.40342 29.6884
rtibia 27.3106
rfoot -33.0023 -21.2803
rtoes -0.456439
lfemur -11.0842 5.10405 -25.7217
ltibia 18.5322
lfoot -32.2692 6.31039
ltoes -46.1049
253
root 40.0571 15.9852 1.98846 -349.522 -14.1292 -360.278
lowerback 19.6473 6.63935 10.5021
upperback -15.8301 11.1288 -9.69738
thorax -27.0614 0.37348 -23.6398
lowerneck -9.61709 -11.7036 -1.44227
upperneck 37.832 -23.5627 13.6281
head 17.9456 -8.42435 1.98862
rclavicle -5.40694e-014 4.77083e-014
rhumerus -66.6008 -6.7164 -92.3977
rradius 59.6875
rwrist -8.74895
rhand -29.4322 -18.5899
rfingers 7.12502
rthumb -2.76915 -48.5517
lclavicle -5.40694e-014 4.77083e-014
lhumerus -64.2433 -30.9589 74.1829
lradius 74.7701
lwrist -9.45116
lhand -35.5008 37.7438
lfingers 7.12502
lthumb -8.62806 67.5475
rfemur -0.67109 -9.98467 30.3095
rtibia 24.5213
rfoot -31.8761 -23.3985
rtoes -8.04347
lfemur -10.4494 5.5576 -25.9253
ltibia 17.9296
lfoot -33.6947 6.66703
ltoes -45.8073
254
root 40.1871 15.9981 1.96961 -349.341 -17.6462 -360.32
lowerback 19.8947 6.90149 11.2533
upperback -16.0484 11.7313 -10.1454
thorax -27.0635 0.311381 -25.0925
lowerneck -8.97398 -11.8989 -1.86648
upperneck 37.669 -23.9516 14.0165
head 17.9083 -8.69011 2.17255
rclavicle -3.49861e-014 3.49861e-014
rhumerus -67.0501 -8.13376 -91.7566
rradius 59.8501
rwrist -8.38975
rhand -29.6301 -18.1207
rfingers 7.12502
rthumb -2.9602 -48.0799
lclavicle -3.49861e-014 3.49861e-014
lhumerus -64.8438 -32.6443 74.1865
lradius 74.4138
lwrist -9.98329
lhand -35.1538 37.9589
lfingers 7.12502
lthumb -8.29316 67.7762
rfemur 0.731355 -11.1319 30.4745
rtibia 21.7787
rfoot -31.5849 -23.8294
rtoes -13.3146
lfemur -10.0614 5.78071 -26.5542
ltibia 17.1907
lfoot -35.4356 7.60164
ltoes -46.253
255
root 40.3225 16.0116 1.95905 -349.165 -20.9145 -360.115
lowerback 20.0137 7.07543 12.0249
upperback -16.2187 12.1945 -10.634
thorax -26.9318 0.212722 -26.5483
lowerneck -8.60989 -12.1634 -2.16469
upperneck 37.6716 -24.3549 13.9602
head 17.9127 -8.9671 2.12008
rclavicle -1.19271e-014 -4.77083e-014
rhumerus -67.6053 -9.22513 -91.2624
rradius 60.3526
rwrist -8.21785
rhand -29.7924 -18.3094
rfingers 7.12502
rthumb -3.11696 -48.2664
lclavicle -1.19271e-014 -4.77083e-014
lhumerus -65.7142 -34.4421 74.5839
lradius 74.1215
lwrist -10.2529
lhand -34.7885 37.873
lfingers 7.12502
lthumb -7.94065 67.7038
rfemur 1.5558 -12.352 30.06
rtibia 19.7883
rfoot -32.4037 -22.0924
rtoes -13.3854
lfemur -9.84352 5.64547 -27.5634
ltibia 16.4081
lfoot -37.21 9.47579
ltoes -47.0505
256
root 40.4206 15.9916 1.93213 -348.062 -24.8258 -360.092
lowerback 19.4085 7.64021 12.1062
upperback -16.7527 12.9166 -11.1012
thorax -26.7878 0.389052 -27.4755
lowerneck -8.27003 -12.358 -2.35812
upperneck 37.5038 -24.6103 13.8965
head 17.7797 -9.1807 2.07544
rclavicle -7.39479e-014 6.04305e-014
rhumerus -68.2947 -10.2603 -90.7593
rradius 61.0504
rwrist -8.21493
rhand -30.0141 -18.7155
rfingers 7.12502
rthumb -3.33104 -48.6692
lclavicle -7.39479e-014 6.04305e-014
lhumerus -66.8553 -36.2665 75.4257
lradius 73.9307
lwrist -10.0743
lhand -34.3297 37.4657
lfingers 7.12502
lthumb -7.49782 67.3128
rfemur 0.952359 -12.1294 30.3996
rtibia 18.3284
rfoot -33.4025 -20.3219
rtoes -10.9128
lfemur -10.5536 6.53699 -28.2574
ltibia 15.6457
lfoot -38.6719 9.79119
ltoes -46.1783
257
root 40.5242 16.0103 1.90506 -347.705 -28.4358 -360.3
lowerback 19.9146 7.85662 12.9282
upperback -16.9982 13.5669 -11.436
thorax -26.9502 0.274607 -28.9788
lowerneck -7.83769 -12.433 -2.55798
upperneck 37.1265 -24.7628 14.1827
head 17.578 -9.3337 2.21008
rclavicle -4.13472e-014 8.5875e-014
rhumerus -69.0894 -11.2357 -90.4462
rradius 61.7522
rwrist -8.36595
rhand -30.2432 -18.5677
rfingers 7.12502
rthumb -3.55233 -48.5179
lclavicle -4.13472e-014 8.5875e-014
lhumerus -68.2426 -38.1833 76.504
lradius 73.8598
lwrist -9.45874
lhand -33.9548 37.0165
lfingers 7.12502
lthumb -7.13589 66.8762
rfemur 1.3481 -10.6482 30.5342
rtibia 15.4199
rfoot -32.2853 -21.1986
rtoes -13.3949
lfemur -10.396 6.75882 -28.5956
ltibia 14.8418
lfoot -40.6043 10.1628
ltoes -45.418
258
root 40.6256 16.0171 1.87375 -346.951 -31.909 -360.566
lowerback 20.0436 8.03593 13.7904
upperback -16.2154 14.3807 -10.8776
thorax -27.6849 -0.249791 -31.3039
lowerneck -7.541 -12.4357 -2.84302
upperneck 36.7604 -24.8479 14.5858
head 17.4535 -9.44431 2.4107
rclavicle -9.38264e-014 -9.22361e-014
rhumerus -69.7332 -12.0249 -90.3279
rradius 62.3997
rwrist -8.60758
rhand -30.5686 -18.9061
rfingers 7.12502
rthumb -3.8666 -48.8508
lclavicle -9.38264e-014 -9.22361e-014
lhumerus -69.7146 -40.0598 77.7052
lradius 73.8734
lwrist -8.51658
lhand -33.5925 36.6074
lfingers 7.12502
lthumb -6.78621 66.4787
rfemur 1.23027 -8.58157 30.8635
rtibia 12.6307
rfoot -31.6839 -22.4985
rtoes -20.1784
lfemur -10.8544 6.91173 -28.965
ltibia 14.2818
lfoot -42.6644 11.2475
ltoes -44.8108
259
root 40.7229 16.0273 1.83765 -346.229 -35.4135 -360.795
lowerback 20.3993 8.21933 14.5483
upperback -16.4278 15.0097 -11.067
thorax -27.8206 -0.392964 -32.7325
lowerneck -7.4499 -12.4441 -3.0839
upperneck 36.5008 -24.8612 14.7105
head 17.3518 -9.52467 2.48578
rclavicle -6.52014e-014 7.31528e-014
rhumerus -70.3423 -12.788 -89.9874
rradius 62.5502
rwrist -9.24906
rhand -31.548 -17.0114
rfingers 7.12502
rthumb -4.81225 -46.9368
lclavicle -6.52014e-014 7.31528e-014
lhumerus -71.2553 -41.8281 79.2126
lradius 73.8779
lwrist -7.44293
lhand -32.9369 35.8527
lfingers 7.12502
lthumb -6.15331 65.7433
rfemur 1.31337 -3.59411 31.2603
rtibia 8.69925
rfoot -34.1548 -22.0196
rtoes -13.6178
lfemur -11.4294 7.33564 -29.3546
ltibia 13.9107
lfoot -44.6452 12.7415
ltoes -45.0575
260
root 40.8377 16.0415 1.80374 -345.71 -38.5207 -360.75
lowerback 20.9257 8.20149 15.4956
upperback -16.4809 15.4751 -11.2142
thorax -28.0702 -0.751111 -34.4712
lowerneck -7.54096 -12.5671 -3.10187
upperneck 36.4785 -24.97 14.3571
head 17.2906 -9.63941 2.29346
rclavicle -3.26007e-014 -4.77083e-014
rhumerus -71.0506 -13.6285 -89.3969
rradius 62.6483
rwrist -9.26096
rhand -31.7815 -16.1135
rfingers 7.12502
rthumb -5.03771 -46.0336
lclavicle -3.26007e-014 -4.77083e-014
lhumerus -72.9112 -43.5866 80.9287
lradius 73.8922
lwrist -6.33174
lhand -31.9993 35.074
lfingers 7.12502
lthumb -5.24809 64.989
rfemur 1.2734 1.68963 31.1719
rtibia 5.29816
rfoot -37.4183 -21.1358
rtoes -0.467741
lfemur -12.3483 7.0817 -30.1096
ltibia 13.9502
lfoot -47.1997 13.1969
ltoes -44.8197
261
root 40.9035 16.057 1.74196 -345.189 -42.7006 -361.05
lowerback 21.9206 8.54599 15.5484
upperback -16.605 16.2254 -11.2307
thorax -28.8466 -0.928149 -35.5663
lowerneck -7.61935 -12.6476 -3.17606
upperneck 36.5386 -25.0195 14.0013
head 17.273 -9.73154 2.12567
rclavicle -7.55382e-014 -2.22639e-014
rhumerus -72.5383 -14.8521 -88.4253
rradius 63.6616
rwrist -8.99071
rhand -31.7151 -16.0782
rfingers 7.12502
rthumb -4.9736 -45.9999
lclavicle -7.55382e-014 -2.22639e-014
lhumerus -74.6584 -45.2975 82.8561
lradius 73.9047
lwrist -5.31315
lhand -31.297 34.6259
lfingers 7.12502
lthumb -4.5699 64.5566
rfemur 0.98796 7.39261 31.3241
rtibia 3.58212
rfoot -40.9552 -21.6523
rtoes 7.56087
lfemur -12.6772 8.42013 -30.273
ltibia 13.6191
lfoot -49.6846 12.9298
ltoes -44.0066
262
root 40.9776 16.0506 1.69423 -344.385 -46.3282 -361.302
lowerback 22.4074 8.76089 15.8891
upperback -16.7787 16.8231 -11.2909
thorax -29.2587 -1.11752 -36.7005
lowerneck -7.7162 -12.4203 -3.27421
upperneck 36.5097 -24.6246 13.8728
head 17.2005 -9.61649 2.15345
rclavicle 1.24042e-013 1.90833e-014
rhumerus -73.2824 -15.4773 -87.8322
rradius 63.5499
rwrist -9.64869
rhand -32.1665 -16.7263
rfingers 7.12502
rthumb -5.40953 -46.6372
lclavicle 1.24042e-013 1.90833e-014
lhumerus -76.4259 -46.9269 84.9482
lradius 73.819
lwrist -4.5723
lhand -31.0923 34.5093
lfingers 7.12502
lthumb -4.37228 64.4442
rfemur -0.231017 9.87566 31.0533
rtibia 3.47934
rfoot -40.6915 -24.2229
rtoes 2.41588
lfemur -13.6887 9.15239 -30.6145
ltibia 13.8674
lfoot -52.424 11.2861
ltoes -41.2822
263
root 41.0364 16.0542 1.64994 -344.102 -49.9888 -361.404
lowerback 23.2474 8.92751 16.0871
upperback -16.7598 17.3392 -11.2974
thorax -29.7666 -1.34381 -37.7443
lowerneck -7.649 -12.1632 -3.39838
upperneck 36.3231 -24.1983 13.9193
head 17.0407 -9.49343 2.27693
rclavicle -1.09729e-013 2.54444e-014
rhumerus -73.8824 -16.0963 -86.9578
rradius 62.6193
rwrist -9.08827
rhand -32.5664 -16.4387
rfingers 7.12502
rthumb -5.7956 -46.3394
lclavicle -1.09729e-013 2.54444e-014
lhumerus -78.1179 -48.4942 87.1096
lradius 73.6923
lwrist -4.13782
lhand -30.8098 34.6384
lfingers 7.12502
lthumb -4.09945 64.5787
rfemur -1.37527 10.7401 30.5441
rtibia 4.24491
rfoot -38.2315 -22.7304
rtoes 6.02978
lfemur -14.0461 10.1028 -30.876
ltibia 13.9394
lfoot -54.7042 9.53951
ltoes -38.9821
264
root 41.0794 16.0601 1.60392 -344.111 -53.6595 -361.274
lowerback 24.1069 9.09128 16.0502
upperback -16.6611 17.7254 -11.3235
thorax -30.3097 -1.5825 -38.6145
lowerneck -7.6125 -11.8727 -3.44094
upperneck 36.1721 -23.7632 13.9975
head 16.903 -9.34631 2.40176
rclavicle -1.08934e-013 6.04305e-014
rhumerus -74.6823 -16.6282 -86.4664
rradius 61.7885
rwrist -7.04033
rhand -34.0756 -17.6178
rfingers 7.12502
rthumb -7.25259 -47.4735
lclavicle -1.08934e-013 6.04305e-014
lhumerus -79.4165 -49.8688 88.9654
lradius 73.4968
lwrist -3.92388
lhand -30.2349 34.1809
lfingers 7.12502
lthumb -3.54428 64.1312
rfemur -2.10403 11.8562 29.9615
rtibia 4.49175
rfoot -36.3092 -23.8062
rtoes 1.25967
lfemur -14.0715 11.5812 -31.152
ltibia 13.7761
lfoot -55.6848 10.2687
ltoes -40.0389
265
root 41.1094 16.0523 1.5548 -343.916 -57.3528 -361.072
lowerback 24.6 9.36484 15.7174
upperback -16.6985 18.0625 -11.41
thorax -30.8727 -1.77018 -39.2134
lowerneck -7.63194 -11.49 -3.2814
upperneck 36.1893 -23.1921 13.8984
head 16.7815 -9.12055 2.44881
rclavicle -1.11319e-014 -1.59028e-014
rhumerus -75.6566 -17.1241 -85.6293
rradius 60.9225
rwrist -7.66395
rhand -33.1663 -14.9793
rfingers 7.12502
rthumb -6.37476 -44.8634
lclavicle -1.11319e-014 -1.59028e-014
lhumerus -80.3985 -51.0501 90.4937
lradius 73.0985
lwrist -3.92447
lhand -29.8921 33.5367
lfingers 7.12502
lthumb -3.2133 63.4922
rfemur -2.69986 13.6935 29.3641
rtibia 3.97664
rfoot -34.3656 -22.4279
rtoes 7.00059
lfemur -14.4087 13.1626 -31.4713
ltibia 13.7595
lfoot -56.4205 10.4948
ltoes -40.3881
266
root 41.1173 16.044 1.51087 -344.067 -60.3706 -360.59
lowerback 24.8602 9.4479 15.4818
upperback -16.6846 18.0952 -11.4873
thorax -31.3269 -2.03342 -39.6344
lowerneck -7.38459 -11.1129 -3.11249
upperneck 36.0404 -22.6019 13.8602
head 16.5158 -8.90846 2.53824
rclavicle 4.77083e-015 -1.33583e-013
rhumerus -76.6073 -17.3843 -85.1255
rradius 60.0862
rwrist -8.13631
rhand -32.0824 -14.9863
rfingers 7.12502
rthumb -5.3283 -44.8993
lclavicle 4.77083e-015 -1.33583e-013
lhumerus -81.174 -52.0034 91.8262
lradius 72.529
lwrist -4.26145
lhand -29.911 33.2204
lfingers 7.12502
lthumb -3.23151 63.1757
rfemur -2.64171 15.7529 28.8205
rtibia 2.82179
rfoot -33.1521 -22.6804
rtoes 6.56195
lfemur -14.6681 14.0808 -31.7439
ltibia 13.9657
lfoot -57.3625 10.1382
ltoes -39.8909
